<svg xmlns="http://www.w3.org/2000/svg" width="60" height="41.602" viewBox="0 0 60 41.602"><defs><style>.a{fill:#fff;}</style></defs><path class="a" d="M53.773,49.547a5.273,5.273,0,1,0-2.6-9.861,23.193,23.193,0,0,0-1.752,1.607,5.27,5.27,0,0,0,4.347,8.254Zm0,0" transform="translate(-42.816 -34.43)"/><path class="a" d="M268.758,136a1.758,1.758,0,1,0,1.758,1.758A1.76,1.76,0,0,0,268.758,136Zm0,0" transform="translate(-235.711 -120.063)"/><path class="a" d="M0,255.273a1.758,1.758,0,0,0,1.758,1.758H44.18a1.758,1.758,0,0,0,1.758-1.758V250H0Zm0,0" transform="translate(0 -220.703)"/><path class="a" d="M22.969,0a22.84,22.84,0,0,0-8.69,1.709A8.788,8.788,0,1,1,2.56,12.44,22.823,22.823,0,0,0,0,22.969v2.813H45.937V22.969A23,23,0,0,0,22.969,0ZM33.047,22.969A5.273,5.273,0,1,1,38.32,17.7,5.279,5.279,0,0,1,33.047,22.969Zm0,0" transform="translate(0)"/><path class="a" d="M406.063,115a14.062,14.062,0,1,0,0,28.125A14.063,14.063,0,0,0,392,129.063,14.063,14.063,0,0,0,406.063,115Zm0,0" transform="translate(-346.063 -101.523)"/></svg>