<svg xmlns="http://www.w3.org/2000/svg" width="56.889" height="40" viewBox="0 0 56.889 40"><defs><style>.a{fill:#fff;}</style></defs><g transform="translate(0 -76)"><g transform="translate(20 92.667)"><path class="a" d="M189.7,226a4.927,4.927,0,0,1-5.971,3.418l2.661,3.991a1.667,1.667,0,0,1-2.773,1.849L180,229.838v19.5h31.889a5.006,5.006,0,0,0,5-5V226Zm18.858,16.667H195a1.667,1.667,0,1,1,0-3.333h13.556a1.667,1.667,0,1,1,0,3.333Zm0-6.667H195a1.667,1.667,0,1,1,0-3.333h13.556a1.667,1.667,0,1,1,0,3.333Z" transform="translate(-180 -226)"/></g><g transform="translate(21.338 89.094)"><path class="a" d="M194.416,194.172l-2.375,1.584,2.375,1.584a1.9,1.9,0,1,0,0-3.167Z" transform="translate(-192.041 -193.85)"/></g><g transform="translate(0 76)"><path class="a" d="M5,76a5.006,5.006,0,0,0-5,5v8.333H6.97a5.193,5.193,0,0,1,7.833-2.69l1.864,1.243V76Z" transform="translate(0 -76)"/></g><g transform="translate(20 76)"><path class="a" d="M211.889,76H180V87.886l1.864-1.243a5.2,5.2,0,0,1,7.834,2.69h27.191V81A5.006,5.006,0,0,0,211.889,76Z" transform="translate(-180 -76)"/></g><g transform="translate(10 89.094)"><path class="a" d="M92.954,194.165a1.9,1.9,0,1,0,0,3.167l2.375-1.584Z" transform="translate(-90 -193.842)"/></g><g transform="translate(0 92.667)"><path class="a" d="M13.053,235.257a1.667,1.667,0,0,1-2.773-1.849l2.661-3.991a5.216,5.216,0,0,1-1.039.153A5.169,5.169,0,0,1,6.969,226H0v18.333a5.006,5.006,0,0,0,5,5H16.667v-19.5Z" transform="translate(0 -225.999)"/></g></g></svg>