<svg xmlns="http://www.w3.org/2000/svg" width="17.019" height="13" viewBox="0 0 17.019 13"><defs><style>.a{fill:#00a9e0;}</style></defs><path class="a" d="M-.07,5.428A.723.723,0,0,1,.678,4.68H4.5a.745.745,0,0,1,.463.154.722.722,0,0,1,.268.414l.39,1.593h9.771L15.5,6.5a.672.672,0,0,1,.7-.52.5.5,0,0,1,.211.033.7.7,0,0,1,.39.26.71.71,0,0,1,.146.439.908.908,0,0,1-.032.211L15,13.309a.7.7,0,0,1-.26.39.714.714,0,0,1-.439.146H6.4a.722.722,0,0,1-.463-.162.759.759,0,0,1-.268-.407L3.911,6.159H.678a.735.735,0,0,1-.528-.211A.694.694,0,0,1-.07,5.428ZM5.975,8.32l1.008,4.03h6.765l.032-.146L14.95,8.321H5.975Zm.683,7.865A1.426,1.426,0,0,1,7.1,15.129a1.468,1.468,0,0,1,1.064-.439,1.495,1.495,0,0,1,0,2.99A1.467,1.467,0,0,1,7.1,17.242,1.428,1.428,0,0,1,6.658,16.185Zm4.457,0a1.427,1.427,0,0,1,.447-1.056,1.466,1.466,0,0,1,1.064-.439,1.495,1.495,0,0,1,0,2.99,1.466,1.466,0,0,1-1.064-.438A1.427,1.427,0,0,1,11.115,16.185Z" transform="translate(0.07 -4.68)"/></svg>