<svg xmlns="http://www.w3.org/2000/svg" width="33" height="25.5" viewBox="0 0 33 25.5"><defs><style>.a{fill:#414141;}.b{fill:#ff4a4a;stroke:#fff;}.c{stroke:none;}.d{fill:none;}</style></defs><g transform="translate(0 1)"><path class="a" d="M-.07,5.945A1.223,1.223,0,0,1,1.2,4.68H7.658a1.261,1.261,0,0,1,.784.261,1.222,1.222,0,0,1,.454.7l.66,2.7H26.09l.193-.578a1.138,1.138,0,0,1,1.183-.88.847.847,0,0,1,.358.055,1.184,1.184,0,0,1,.66.44,1.2,1.2,0,0,1,.248.743,1.537,1.537,0,0,1-.055.358L25.431,19.283a1.183,1.183,0,0,1-.44.66,1.208,1.208,0,0,1-.743.248H10.875a1.222,1.222,0,0,1-.784-.274,1.284,1.284,0,0,1-.454-.688L6.668,7.183H1.2A1.244,1.244,0,0,1,.3,6.825,1.174,1.174,0,0,1-.07,5.945Zm10.23,4.9,1.705,6.82H23.313l.054-.247,1.981-6.573H10.16Zm1.155,13.311a2.413,2.413,0,0,1,.756-1.788,2.484,2.484,0,0,1,1.8-.743,2.53,2.53,0,0,1,0,5.059,2.483,2.483,0,0,1-1.8-.742A2.416,2.416,0,0,1,11.315,24.151Zm7.543,0a2.414,2.414,0,0,1,.757-1.788,2.481,2.481,0,0,1,1.8-.743,2.53,2.53,0,0,1,0,5.059,2.482,2.482,0,0,1-1.8-.742A2.414,2.414,0,0,1,18.858,24.151Z" transform="translate(0.07 -2.18)"/><g class="b" transform="translate(24)"><circle class="c" cx="4" cy="4" r="4"/><circle class="d" cx="4" cy="4" r="4.5"/></g></g></svg>