<svg xmlns="http://www.w3.org/2000/svg" width="41.5" height="30" viewBox="0 0 41.5 30"><defs><style>.a{fill:#00a9e0;}</style></defs><path class="a" d="M40.462,20.625H39.425V14.291a2.683,2.683,0,0,0-.914-1.986L32.033,6.451a3.288,3.288,0,0,0-2.2-.826h-2.86V2.813A2.975,2.975,0,0,0,23.862,0H7.262A2.975,2.975,0,0,0,4.15,2.813V5.625H.519A.5.5,0,0,0,0,6.094v.938A.5.5,0,0,0,.519,7.5H18.156a.5.5,0,0,1,.519.469v.938a.5.5,0,0,1-.519.469H2.594a.5.5,0,0,0-.519.469v.938a.5.5,0,0,0,.519.469H16.081a.5.5,0,0,1,.519.469v.937a.5.5,0,0,1-.519.469H.519A.5.5,0,0,0,0,13.594v.938A.5.5,0,0,0,.519,15H14.006a.5.5,0,0,1,.519.469v.938a.5.5,0,0,1-.519.469H4.15v7.5C4.15,27.48,6.938,30,10.375,30S16.6,27.48,16.6,24.375h8.3C24.9,27.48,27.688,30,31.125,30s6.225-2.52,6.225-5.625h3.112a.994.994,0,0,0,1.038-.937V21.563A.994.994,0,0,0,40.462,20.625ZM10.375,27.188a2.975,2.975,0,0,1-3.113-2.812,2.975,2.975,0,0,1,3.113-2.812,2.975,2.975,0,0,1,3.112,2.812A2.975,2.975,0,0,1,10.375,27.188Zm20.75,0a2.975,2.975,0,0,1-3.113-2.812,3.129,3.129,0,0,1,6.225,0A2.975,2.975,0,0,1,31.125,27.188ZM36.313,15H26.975V8.438h2.86l6.478,5.854Z"/></svg>