<svg xmlns="http://www.w3.org/2000/svg" width="49.97" height="50" viewBox="0 0 49.97 50"><defs><style>.a{fill:#f9f9f9;}</style></defs><g transform="translate(0 0)"><path class="a" d="M24.967,32.1a7.1,7.1,0,1,1,3.66-13.175,2.276,2.276,0,0,0,2.782-.356l9.53-9.537a2.3,2.3,0,0,0-.167-3.4,25,25,0,1,0,.007,38.738,2.3,2.3,0,0,0,.161-3.394l-9.53-9.539a2.287,2.287,0,0,0-2.8-.348,7.044,7.044,0,0,1-3.647,1.01" transform="translate(0 0)"/><path class="a" d="M14.175,7.093A7.088,7.088,0,1,1,7.088,0a7.09,7.09,0,0,1,7.087,7.093" transform="translate(35.795 17.97)"/></g></svg>