<svg xmlns="http://www.w3.org/2000/svg" width="60" height="40.316" viewBox="0 0 60 40.316"><defs><style>.a{fill:#fff;}</style></defs><path class="a" d="M58.118,102.362a3.606,3.606,0,0,0-3.705.1l-2.96,1.85c-2.966-1.076-5.954-2.275-8.887-3.57-2.418-1.068-4.182-1.927-5.6-2.617-3.118-1.518-4.542-2.212-6.99-2.151-2.391.059-3.779.8-6.079,2.034-1.356.726-3.043,1.629-5.528,2.734a78.206,78.206,0,0,1-9.793,3.588l-2.99-1.868a3.606,3.606,0,0,0-3.705-.1A3.606,3.606,0,0,0,0,105.556V116.6a3.631,3.631,0,0,0,1.716,3.1L7.5,123.308v.966a4.67,4.67,0,0,0,1.68,3.6A35.881,35.881,0,0,0,30,136.284c9.45,0,16.6-4.6,20.929-8.455a4.693,4.693,0,0,0,1.571-3.5v-.649l5.784-3.615a3.63,3.63,0,0,0,1.716-3.1V105.556A3.606,3.606,0,0,0,58.118,102.362Zm-43.735,17.1a45.625,45.625,0,0,0,31.233,0l.642,1.762a47.5,47.5,0,0,1-32.517,0Zm-.642-6.676.642-1.762a45.625,45.625,0,0,0,31.233,0l.642,1.762a47.5,47.5,0,0,1-32.517,0ZM2.709,118.1a1.766,1.766,0,0,1-.835-1.506V105.556a1.776,1.776,0,0,1,2.718-1.506L7.5,105.866V121.1Zm55.415-1.136a1.766,1.766,0,0,1-.835,1.506l-4.79,2.994v-15.6l2.907-1.816a1.776,1.776,0,0,1,2.718,1.506Z" transform="translate(0.001 -95.968)"/></svg>