<svg xmlns="http://www.w3.org/2000/svg" width="43.5" height="30" viewBox="0 0 43.5 30"><defs><style>.a{fill:#fff;}.b{fill:#263b80;}.c{fill:#232c65;}.d{fill:#139ad6;}</style></defs><path class="a" d="M43.5,106.879a2.571,2.571,0,0,1-2.571,2.572H2.571A2.572,2.572,0,0,1,0,106.879V82.022a2.571,2.571,0,0,1,2.571-2.571H40.929A2.571,2.571,0,0,1,43.5,82.022v24.857Z" transform="translate(0 -79.451)"/><path class="b" d="M163.771,130.871c-.953-1.09-2.724-1.634-5.175-1.634h-6.809a1.169,1.169,0,0,0-.953.817l-2.724,17.839a.623.623,0,0,0,.544.681h4.221l1.089-6.672v.272a1.168,1.168,0,0,1,.953-.817h2.043c3.949,0,6.944-1.634,7.9-6.128v-.409h0a4.757,4.757,0,0,0-1.089-3.949" transform="translate(-135.526 -125.007)"/><path class="c" d="M227.922,186.537v-.408c0-.014,0-.026,0-.04a3.856,3.856,0,0,0-.642-.362,6.029,6.029,0,0,0-2.063-.416l0,0h-1.986l0,0h-4.166a.984.984,0,0,0-.955.845l-1.086,7.054v.272a1.168,1.168,0,0,1,.954-.817h2.043C223.973,192.666,226.969,191.032,227.922,186.537Z" transform="translate(-198.589 -176.316)"/><path class="d" d="M214.149,196.209a3.561,3.561,0,0,0-1.335-1.727c0,.013,0,.026,0,.04v.408c-.953,4.494-3.949,6.128-7.9,6.128h-2.043a1.167,1.167,0,0,0-.953.817v-.105c-.016.035-.03.07-.042.105l-.769,4.694-.279,1.706h0l-.313,1.907a.5.5,0,0,0,.544.544h3.395a.959.959,0,0,0,.963-.818l.029-.178h0l.652-4.043a1.031,1.031,0,0,1,1.015-.953h.347c3.4,0,6.128-1.361,6.809-5.447A6.418,6.418,0,0,0,214.149,196.209Z" transform="translate(-183.478 -184.709)"/></svg>