<svg xmlns="http://www.w3.org/2000/svg" width="40.068" height="40.33" viewBox="0 0 40.068 40.33"><defs><style>.a{fill:#fff;}</style></defs><g transform="translate(-2.992 0)"><path class="a" d="M523.147,9.182,524.331,7.7a4.7,4.7,0,0,0-.737-6.608l-.075-.061a4.7,4.7,0,0,0-6.608.737l-1.18,1.478Z" transform="translate(-490.259)"/><path class="a" d="M82.136,117.827a1.414,1.414,0,0,0,2.508.728l8.134-10.172a1.412,1.412,0,0,0-.25-2.008,1.438,1.438,0,0,0-1.977.267l-.794.991L88.4,106.546l0,0-7.41-5.941L62.032,124.3l7.414,5.937,17.192-21.485L88,109.838l-5.56,6.95A1.4,1.4,0,0,0,82.136,117.827Z" transform="translate(-56.451 -96.189)"/><path class="a" d="M11.763,679.494,4.778,673.9a7.083,7.083,0,0,0-.171.732l-1.6,7.664a.689.689,0,0,0,.96.767l7.129-3.245S11.408,679.687,11.763,679.494Z" transform="translate(0 -644.351)"/><path class="a" d="M164.58,790.634a1.23,1.23,0,0,0-.18.013l-10.773,1.394a.66.66,0,0,1-.64-1.008c.162-.25.32-.5.478-.759a1.063,1.063,0,0,0-.912-1.574,1.052,1.052,0,0,0-.162.013l-14.119,2.122-1.688.254-4.6.693a.962.962,0,0,0-.829,1.052,1.044,1.044,0,0,0,.267.627.939.939,0,0,0,.7.307,1.067,1.067,0,0,0,.162-.013l16.828-2.53a.658.658,0,0,1,.631,1.035c-.11.149-.219.3-.329.452a1.207,1.207,0,0,0,.118,1.456.9.9,0,0,0,.649.281.522.522,0,0,0,.083,0h.009l14.526-1.85h.009a.9.9,0,0,0,.614-.408,1.051,1.051,0,0,0,.145-.82A.979.979,0,0,0,164.58,790.634Z" transform="translate(-122.537 -754.118)"/></g></svg>