<svg xmlns="http://www.w3.org/2000/svg" width="25" height="20" viewBox="0 0 25 20"><defs><style>.a{fill:none;}.a,.b{stroke-linecap:round;stroke-linejoin:round;}.b{fill:#63666a;}.c,.d{stroke:none;}.d{fill:#63666a;}</style></defs><g transform="translate(0 0)"><g class="a" transform="translate(-2.499 -6)"><path class="c" d="M26.934,9.131a3.517,3.517,0,0,0-2.381-2.587C22.442,6,15,6,15,6s-7.443,0-9.554.6A3.517,3.517,0,0,0,3.064,9.182,39.5,39.5,0,0,0,2.5,16.026a39.5,39.5,0,0,0,.565,6.9A3.506,3.506,0,0,0,5.445,25.4C7.556,26,15,26,15,26s7.443,0,9.554-.6a3.517,3.517,0,0,0,2.381-2.587,39.494,39.494,0,0,0,.565-6.792,39.495,39.495,0,0,0-.565-6.9Z"/><path class="d" d="M 14.99908447265625 7.749998092651367 L 14.99913501739502 7.749998092651367 C 12.22413063049316 7.749998092651367 7.320556640625 7.892787933349609 5.933666229248047 8.275617599487305 C 5.378152847290039 8.446125030517578 4.939668655395508 8.927343368530273 4.778583526611328 9.540426254272461 C 4.417570114135742 11.67281723022461 4.239664077758789 13.85176849365234 4.249824523925781 16.01765823364258 C 4.249855041503906 16.02386856079102 4.249855041503906 16.03007888793945 4.249814987182617 16.03628921508789 C 4.236873626708984 18.20853805541992 4.413009643554688 20.39351272583008 4.773416519165039 22.53246307373047 C 4.952974319458008 23.11331748962402 5.388872146606445 23.56538772583008 5.925361633300781 23.72207260131836 C 7.299627304077148 24.10632133483887 12.21793365478516 24.24981880187988 14.99908447265625 24.25 C 17.77472686767578 24.24982070922852 22.67900085449219 24.10686302185059 24.06473731994629 23.72435760498047 C 24.62016677856445 23.55381393432617 25.05856323242188 23.07265472412109 25.21966361999512 22.45966529846191 C 25.57787322998047 20.34359550476074 25.75578117370605 18.18128776550293 25.74844360351562 16.03183937072754 C 25.7484245300293 16.02636909484863 25.74843406677246 16.02090835571289 25.74846458435059 16.01543807983398 C 25.76147842407227 13.83287239074707 25.58358383178711 11.63735961914062 25.21967506408691 9.488626480102539 C 25.06027984619141 8.882125854492188 24.62939453125 8.404623031616211 24.08231353759766 8.22941780090332 C 22.65584182739258 7.880630493164062 17.76888465881348 7.750146865844727 14.99908447265625 7.749998092651367 M 14.99913501739502 5.999998092651367 C 14.99913501739502 5.999998092651367 22.44233512878418 5.999998092651367 24.55313491821289 6.543338775634766 C 25.72904396057129 6.894039154052734 26.6371955871582 7.88096809387207 26.93391418457031 9.130659103393555 L 26.93392372131348 9.130659103393555 C 27.32323455810547 11.40581893920898 27.51221466064453 13.71403884887695 27.49843406677246 16.02586936950684 C 27.50620460510254 18.30315017700195 27.3172550201416 20.57643890380859 26.93391418457031 22.81758880615234 C 26.6371955871582 24.06727981567383 25.72903442382812 25.05420875549316 24.55313491821289 25.4049186706543 C 22.44233512878418 26 14.99913501739502 26 14.99913501739502 26 C 14.99913501739502 26 7.555944442749023 26 5.445144653320312 25.40490913391113 C 4.294065475463867 25.07289886474609 3.391223907470703 24.13098907470703 3.064353942871094 22.92107772827148 C 2.675045013427734 20.64591979980469 2.486074447631836 18.33768844604492 2.499845504760742 16.02586936950684 C 2.489084243774414 13.73131942749023 2.678054809570312 11.44055938720703 3.064353942871094 9.182409286499023 C 3.361083984375 7.932718276977539 4.269233703613281 6.945789337158203 5.445144653320312 6.595088958740234 C 7.555944442749023 5.999998092651367 14.99913501739502 5.999998092651367 14.99913501739502 5.999998092651367 Z"/></g><g class="b" transform="translate(-4.305 -6.924)"><path class="c" d="M 14.12500095367432 20.90435218811035 L 14.12500095367432 20.04480171203613 L 14.12500095367432 12.72000217437744 L 14.12500095367432 11.86045265197754 L 14.87217140197754 12.28537273406982 L 21.31217193603516 15.94777202606201 L 22.07644081115723 16.38240242004395 L 21.31217193603516 16.81703186035156 L 14.87217140197754 20.47943305969238 L 14.12500095367432 20.90435218811035 Z"/><path class="d" d="M 14.62500095367432 20.04480171203613 L 21.06500053405762 16.38240242004395 L 14.62500095367432 12.72000217437744 L 14.62500095367432 20.04480171203613 M 14.625 21.04480171203613 C 14.4512357711792 21.04480171203613 14.27755165100098 20.99957466125488 14.1221809387207 20.90919303894043 C 13.81437110900879 20.73014259338379 13.62500095367432 20.40090179443359 13.62500095367432 20.04480171203613 L 13.62500095367432 12.72000217437744 C 13.62500095367432 12.36390209197998 13.81437110900879 12.0346622467041 14.1221809387207 11.85561275482178 C 14.42998886108398 11.67655086517334 14.80979919433594 11.67470169067383 15.11935138702393 11.85074234008789 L 21.55935096740723 15.51314258575439 C 21.8719310760498 15.69090270996094 22.06500053405762 16.02281188964844 22.06500053405762 16.38240242004395 C 22.06500053405762 16.74199295043945 21.8719310760498 17.07390213012695 21.55935096740723 17.25166320800781 L 15.11935138702393 20.9140625 C 14.96605014801025 21.00124359130859 14.795485496521 21.04480171203613 14.625 21.04480171203613 Z"/></g></g></svg>