<svg xmlns="http://www.w3.org/2000/svg" width="25" height="19" viewBox="0 0 25 19"><defs><style>.a{fill:none;}.a,.b{stroke-linecap:round;stroke-linejoin:round;}.b{fill:#1e398d;}.c,.d{stroke:none;}.d{fill:#1e398d;}</style></defs><g transform="translate(-301 -3944)"><g class="a" transform="translate(298.501 3938)"><path class="c" d="M26.934,8.974a3.414,3.414,0,0,0-2.381-2.458C22.442,6,15,6,15,6s-7.443,0-9.554.565A3.414,3.414,0,0,0,3.064,9.023a35.691,35.691,0,0,0-.565,6.5,35.691,35.691,0,0,0,.565,6.55,3.414,3.414,0,0,0,2.381,2.36C7.556,25,15,25,15,25s7.443,0,9.554-.565a3.414,3.414,0,0,0,2.381-2.458,35.69,35.69,0,0,0,.565-6.452,35.69,35.69,0,0,0-.565-6.55Z"/><path class="d" d="M 14.99910449981689 7.5 L 14.99917411804199 7.5 C 12.20441818237305 7.500139236450195 7.256572723388672 7.639142990112305 5.844066619873047 8.011375427246094 C 5.205667495727539 8.196025848388672 4.706432342529297 8.704013824462891 4.530612945556641 9.34492301940918 C 4.168224334716797 11.37693786621094 3.98963737487793 13.45332145690918 3.999824523925781 15.51718044281006 C 3.999855041503906 15.522780418396 3.999855041503906 15.52838039398193 3.999814987182617 15.53398036956787 C 3.98682975769043 17.60452842712402 4.163759231567383 19.68732070922852 4.525764465332031 21.72619819641113 C 4.722005844116211 22.33639144897461 5.219221115112305 22.81608581542969 5.837743759155273 22.98695182800293 C 7.241912841796875 23.36041450500488 12.20031356811523 23.4998607635498 14.99913501739502 23.5 C 17.7932014465332 23.5 22.74029159545898 23.361083984375 24.15409469604492 22.98865509033203 C 24.7926025390625 22.80401229858398 25.29189682006836 22.29596710205078 25.46767807006836 21.65496063232422 C 25.82725143432617 19.63849830627441 26.00579643249512 17.57814407348633 25.99844360351562 15.52997016906738 C 25.9984245300293 15.5250301361084 25.99843406677246 15.52009963989258 25.99846458435059 15.51517009735107 C 26.01151657104492 13.43555641174316 25.83293914794922 11.34339332580566 25.46769332885742 9.295930862426758 C 25.29331970214844 8.659921646118164 24.8005485534668 8.154872894287109 24.16924667358398 7.966630935668945 C 22.72406768798828 7.627035140991211 17.78943634033203 7.50010871887207 14.99910449981689 7.5 M 14.99913501739502 6 C 14.99913501739502 6 22.44233512878418 6 24.55313491821289 6.516170501708984 C 25.72904396057129 6.849330902099609 26.6371955871582 7.786920547485352 26.93391418457031 8.974130630493164 L 26.93392372131348 8.974119186401367 C 27.32323455810547 11.13553047180176 27.51221466064453 13.32834053039551 27.49843406677246 15.52458000183105 C 27.50620460510254 17.68799018859863 27.3172550201416 19.84762001037598 26.93391418457031 21.97671127319336 C 26.6371955871582 23.16391944885254 25.72903442382812 24.10149955749512 24.55313491821289 24.43466949462891 C 22.44233512878418 25 14.99913501739502 25 14.99913501739502 25 C 14.99913501739502 25 7.555944442749023 25 5.445144653320312 24.43466949462891 C 4.294065475463867 24.11925888061523 3.391223907470703 23.22443962097168 3.064353942871094 22.07503128051758 C 2.675045013427734 19.91361999511719 2.486074447631836 17.72080993652344 2.499845504760742 15.52458000183105 C 2.489084243774414 13.34474945068359 2.678054809570312 11.16852951049805 3.064353942871094 9.023279190063477 C 3.361083984375 7.836080551147461 4.269233703613281 6.898490905761719 5.445144653320312 6.565330505371094 C 7.555944442749023 6 14.99913501739502 6 14.99913501739502 6 Z"/></g><g class="b" transform="translate(296.375 3937.279)"><path class="c" d="M 14.12500095367432 20.90435218811035 L 14.12500095367432 20.04480171203613 L 14.12500095367432 12.72000217437744 L 14.12500095367432 11.86045265197754 L 14.87217140197754 12.28537273406982 L 21.31217193603516 15.94777202606201 L 22.07644081115723 16.38240242004395 L 21.31217193603516 16.81703186035156 L 14.87217140197754 20.47943305969238 L 14.12500095367432 20.90435218811035 Z"/><path class="d" d="M 14.62500095367432 20.04480171203613 L 21.06500053405762 16.38240242004395 L 14.62500095367432 12.72000217437744 L 14.62500095367432 20.04480171203613 M 14.625 21.04480171203613 C 14.4512357711792 21.04480171203613 14.27755165100098 20.99957466125488 14.1221809387207 20.90919303894043 C 13.81437110900879 20.73014259338379 13.62500095367432 20.40090179443359 13.62500095367432 20.04480171203613 L 13.62500095367432 12.72000217437744 C 13.62500095367432 12.36390209197998 13.81437110900879 12.0346622467041 14.1221809387207 11.85561275482178 C 14.42998886108398 11.67655086517334 14.80979919433594 11.67470169067383 15.11935138702393 11.85074234008789 L 21.55935096740723 15.51314258575439 C 21.8719310760498 15.69090270996094 22.06500053405762 16.02281188964844 22.06500053405762 16.38240242004395 C 22.06500053405762 16.74199295043945 21.8719310760498 17.07390213012695 21.55935096740723 17.25166320800781 L 15.11935138702393 20.9140625 C 14.96605014801025 21.00124359130859 14.795485496521 21.04480171203613 14.625 21.04480171203613 Z"/></g></g></svg>