<svg xmlns="http://www.w3.org/2000/svg" width="147.566" height="102.316" viewBox="0 0 147.566 102.316"><defs><style>.a{fill:#84bd00;}</style></defs><path class="a" d="M61.47,64.939a12.97,12.97,0,1,0-6.383-24.253,57.045,57.045,0,0,0-4.309,3.953,12.961,12.961,0,0,0,10.692,20.3Zm0,0" transform="translate(-34.522 -27.76)"/><path class="a" d="M271.323,136a4.323,4.323,0,1,0,4.323,4.323A4.329,4.329,0,0,0,271.323,136Zm0,0" transform="translate(-190.047 -96.803)"/><path class="a" d="M0,262.97a4.324,4.324,0,0,0,4.323,4.323H108.657a4.324,4.324,0,0,0,4.323-4.323V250H0Zm0,0" transform="translate(0 -177.946)"/><path class="a" d="M56.49,0A56.172,56.172,0,0,0,35.118,4.2,21.614,21.614,0,1,1,6.3,30.595,56.131,56.131,0,0,0,0,56.49v6.917H112.98V56.49A56.554,56.554,0,0,0,56.49,0ZM81.276,56.49a12.97,12.97,0,1,1,12.97-12.97A12.985,12.985,0,0,1,81.276,56.49Zm0,0" transform="translate(0 0)"/><path class="a" d="M426.586,115a34.586,34.586,0,1,0,0,69.171A34.586,34.586,0,0,0,392,149.586,34.586,34.586,0,0,0,426.586,115Zm0,0" transform="translate(-279.02 -81.855)"/></svg>