<svg xmlns="http://www.w3.org/2000/svg" width="24" height="24" viewBox="0 0 24 24"><defs><style>.a{fill:#fff;}</style></defs><path class="a" d="M280.156,0h-5.062A3.1,3.1,0,0,0,272,3.094V8.156a3.1,3.1,0,0,0,3.094,3.094h5.063a3.1,3.1,0,0,0,3.094-3.094V3.094A3.1,3.1,0,0,0,280.156,0Zm1.594,8.156a.75.75,0,0,1-1.5,0V3.094A.094.094,0,0,0,280.156,3a.75.75,0,0,1,0-1.5,1.6,1.6,0,0,1,1.594,1.594Z" transform="translate(-259.25)"/><path class="a" d="M8.156,0H3.094A3.1,3.1,0,0,0,0,3.094V8.156A3.1,3.1,0,0,0,3.094,11.25H8.156A3.1,3.1,0,0,0,11.25,8.156V3.094A3.1,3.1,0,0,0,8.156,0ZM9.75,8.156a.75.75,0,0,1-1.5,0V3.094A.094.094,0,0,0,8.156,3a.75.75,0,0,1,0-1.5A1.6,1.6,0,0,1,9.75,3.094Z"/><path class="a" d="M8.156,272H3.094A3.1,3.1,0,0,0,0,275.094v5.063a3.1,3.1,0,0,0,3.094,3.094H8.156a3.1,3.1,0,0,0,3.094-3.094v-5.062A3.1,3.1,0,0,0,8.156,272Zm1.594,8.156a.75.75,0,0,1-1.5,0v-5.062A.094.094,0,0,0,8.156,275a.75.75,0,0,1,0-1.5,1.6,1.6,0,0,1,1.594,1.594Z" transform="translate(0 -259.25)"/><path class="a" d="M277.625,272a5.625,5.625,0,1,0,5.625,5.625A5.631,5.631,0,0,0,277.625,272Zm3.9,7.4a.75.75,0,0,1-1.359-.634,2.624,2.624,0,0,0-1.27-3.488.75.75,0,0,1,.634-1.36,4.125,4.125,0,0,1,2,5.482Z" transform="translate(-259.25 -259.25)"/></svg>