<svg xmlns="http://www.w3.org/2000/svg" width="24" height="24.001" viewBox="0 0 24 24.001"><defs><style>.a{fill:#fff;}</style></defs><path class="a" d="M22.5,12.033H1.5A1.449,1.449,0,0,1,.434,11.6,1.436,1.436,0,0,1,0,10.544,1.474,1.474,0,0,1,.434,9.478,1.431,1.431,0,0,1,1.5,9.033H2.813a3.346,3.346,0,0,0,2.813,1.5,3.346,3.346,0,0,0,2.813-1.5h7.125a3.377,3.377,0,0,0,5.625,0H22.5a1.431,1.431,0,0,1,1.066.445A1.474,1.474,0,0,1,24,10.544a1.416,1.416,0,0,1-.445,1.054,1.463,1.463,0,0,1-1.054.434ZM18.889,8.892a1.165,1.165,0,0,1-.938.117,1.223,1.223,0,0,1-.75-.586L13.663,1.909A1.222,1.222,0,0,1,13.534.96,1.186,1.186,0,0,1,14.108.2,1.161,1.161,0,0,1,15.046.08a1.226,1.226,0,0,1,.75.586l3.539,6.515a1.222,1.222,0,0,1,.129.949A1.186,1.186,0,0,1,18.889,8.892ZM6.8,8.424a1.226,1.226,0,0,1-.75.586,1.161,1.161,0,0,1-.938-.117,1.186,1.186,0,0,1-.574-.761,1.225,1.225,0,0,1,.129-.95L8.2.666A1.226,1.226,0,0,1,8.953.08,1.161,1.161,0,0,1,9.89.2a1.186,1.186,0,0,1,.574.761,1.225,1.225,0,0,1-.129.95ZM21,22.532a1.68,1.68,0,0,1-.691,1.218,3.253,3.253,0,0,1-1.535.281H5.32a3.551,3.551,0,0,1-1.593-.281A1.63,1.63,0,0,1,3,22.532l-1.5-9h21Zm-3.749-4.5h-6a.75.75,0,0,0,0,1.5h6a.75.75,0,0,0,0-1.5Z" transform="translate(0 -0.031)"/></svg>