<svg xmlns="http://www.w3.org/2000/svg" width="60" height="60" viewBox="0 0 60 60"><defs><style>.a{fill:#84bd00;stroke:#fff;stroke-width:5px;}.b{fill:#fff;}.c{stroke:none;}.d{fill:none;}</style></defs><g transform="translate(-24 -846)"><g class="a" transform="translate(24 846)"><rect class="c" width="60" height="60" rx="30"/><rect class="d" x="2.5" y="2.5" width="55" height="55" rx="27.5"/></g><g transform="translate(41 845.953)"><g transform="translate(0.001 17.047)"><g transform="translate(0 0)"><path class="b" d="M26.547,28.408l-4.092-4.092V19.59a1.548,1.548,0,0,0-3.1,0v1.632l-3.047-3.047a4.071,4.071,0,0,0-5.628,0L.453,28.408A1.548,1.548,0,0,0,2.643,30.6L12.873,20.366a.914.914,0,0,1,1.252,0L24.358,30.6a1.548,1.548,0,1,0,2.189-2.189Z" transform="translate(-0.001 -17.047)"/><path class="b" d="M78.924,127.971a.76.76,0,0,0-1.075,0l-9,9a.762.762,0,0,0-.223.538v6.562a2.788,2.788,0,0,0,2.788,2.788h4.456v-6.9H80.9v6.9h4.456a2.788,2.788,0,0,0,2.788-2.788v-6.562a.759.759,0,0,0-.223-.538Z" transform="translate(-64.887 -121.714)"/></g></g></g></g></svg>