<svg xmlns="http://www.w3.org/2000/svg" width="147.566" height="99.155" viewBox="0 0 147.566 99.155"><defs><style>.a{fill:#00a9e0;}</style></defs><path class="a" d="M142.938,111.694a8.869,8.869,0,0,0-9.113.239l-7.28,4.55c-7.3-2.646-14.643-5.6-21.857-8.781-5.948-2.626-10.286-4.739-13.773-6.436-7.668-3.733-11.17-5.441-17.191-5.289-5.88.144-9.294,1.974-14.952,5-3.334,1.785-7.483,4.006-13.6,6.723a192.339,192.339,0,0,1-24.085,8.824l-7.353-4.595a8.869,8.869,0,0,0-9.113-.239A8.869,8.869,0,0,0,0,119.548V146.7a8.929,8.929,0,0,0,4.221,7.615l14.225,8.891v2.377a11.485,11.485,0,0,0,4.132,8.845c24.517,20.455,50.941,20.692,51.205,20.692,23.241,0,40.819-11.308,51.473-20.794a11.541,11.541,0,0,0,3.864-8.612v-1.6l14.224-8.891a8.929,8.929,0,0,0,4.221-7.615V119.548A8.869,8.869,0,0,0,142.938,111.694ZM35.374,153.759a112.211,112.211,0,0,0,76.816,0l1.579,4.333a116.821,116.821,0,0,1-79.973,0ZM33.8,137.34l1.579-4.333a112.211,112.211,0,0,0,76.816,0l1.579,4.333a116.822,116.822,0,0,1-79.973,0ZM6.664,150.407a4.344,4.344,0,0,1-2.054-3.7V119.548a4.369,4.369,0,0,1,6.685-3.7l7.15,4.468V157.77Zm136.289-2.793a4.343,4.343,0,0,1-2.054,3.7l-11.781,7.363v-38.37l7.15-4.467a4.369,4.369,0,0,1,6.685,3.7Z" transform="translate(0.001 -95.968)"/></svg>