<svg xmlns="http://www.w3.org/2000/svg" width="43.5" height="30" viewBox="0 0 43.5 30"><defs><style>.a{fill:#fff;}.b{fill:none;}.c{fill:#ff5f00;}.d{fill:#eb001b;}.e{fill:#f79e1b;}</style></defs><g transform="translate(0 0)"><path class="a" d="M43.5,106.879a2.571,2.571,0,0,1-2.571,2.572H2.571A2.572,2.572,0,0,1,0,106.879V82.022a2.571,2.571,0,0,1,2.571-2.571H40.929A2.571,2.571,0,0,1,43.5,82.022v24.857Z" transform="translate(0 -79.451)"/></g><g transform="translate(6.944 4.508)"><rect class="b" width="29.613" height="20.985"/><g transform="translate(3.481 3.497)"><rect class="c" width="6.121" height="10.999" transform="translate(8.257 1.496)"/><path class="d" d="M346.357,276.994a6.983,6.983,0,0,1,2.672-5.5,6.995,6.995,0,1,0,0,11A6.983,6.983,0,0,1,346.357,276.994Z" transform="translate(-337.711 -269.999)"/><path class="e" d="M407.275,276.995a6.995,6.995,0,0,1-11.317,5.5,7,7,0,0,0,0-11,6.995,6.995,0,0,1,11.317,5.5Z" transform="translate(-384.64 -270)"/><path class="e" d="M450.187,327.182v-.225h.091v-.046h-.231v.046h.091v.225Zm.449,0v-.272h-.071l-.081.187-.082-.187h-.071v.272h.05v-.2l.076.177h.052l.076-.177v.205Z" transform="translate(-428.219 -315.853)"/></g></g></svg>