<svg xmlns="http://www.w3.org/2000/svg" width="98.543" height="99.189" viewBox="0 0 98.543 99.189"><defs><style>.a{fill:#1e398d;}</style></defs><path class="a" d="M533.968,22.581l2.912-3.645a11.557,11.557,0,0,0-1.812-16.251l-.183-.151a11.556,11.556,0,0,0-16.251,1.812l-2.9,3.634Z" transform="translate(-460.44 0)"/><path class="a" d="M111.475,142.969a3.477,3.477,0,0,0,6.168,1.79l20-25.018a3.472,3.472,0,0,0-.615-4.939,3.536,3.536,0,0,0-4.863.658l-1.952,2.437-3.343-2.674.011-.011L108.661,100.6,62.032,158.886l18.235,14.6,42.283-52.84,3.343,2.674-13.674,17.092A3.45,3.45,0,0,0,111.475,142.969Z" transform="translate(-55.665 -89.752)"/><path class="a" d="M24.564,687.659,7.385,673.9a17.427,17.427,0,0,0-.421,1.8L3.029,694.55a1.694,1.694,0,0,0,2.362,1.887l17.534-7.98C22.914,688.457,23.69,688.134,24.564,687.659Z" transform="translate(-2.992 -601.228)"/><path class="a" d="M213.372,793.456a3.029,3.029,0,0,0-.442.032l-26.5,3.429a1.624,1.624,0,0,1-1.575-2.48c.4-.615.787-1.24,1.175-1.866a2.581,2.581,0,0,0-2.642-3.839l-34.724,5.219-4.152.625-11.323,1.7a2.366,2.366,0,0,0-2.038,2.588,2.567,2.567,0,0,0,.658,1.542,2.309,2.309,0,0,0,1.725.755,2.6,2.6,0,0,0,.4-.032l41.388-6.222a1.619,1.619,0,0,1,1.553,2.545c-.27.367-.539.744-.809,1.111a2.969,2.969,0,0,0,.291,3.58,2.207,2.207,0,0,0,1.6.69,1.282,1.282,0,0,0,.2-.011h.022l35.727-4.551h.022a2.2,2.2,0,0,0,1.51-1,2.586,2.586,0,0,0,.356-2.016A2.408,2.408,0,0,0,213.372,793.456Z" transform="translate(-117.328 -703.649)"/></svg>