<svg xmlns="http://www.w3.org/2000/svg" width="43.5" height="30" viewBox="0 0 43.5 30"><defs><style>.a{fill:#fff;}.b{fill:#f79f1a;}.c{fill:#059bbf;}</style></defs><path class="a" d="M43.5,106.879a2.571,2.571,0,0,1-2.571,2.572H2.571A2.571,2.571,0,0,1,0,106.879V82.022a2.571,2.571,0,0,1,2.571-2.571H40.929A2.571,2.571,0,0,1,43.5,82.022v24.857Z" transform="translate(0 -79.451)"/><path class="b" d="M37.566,195.535l-1.021-4.9a1.218,1.218,0,0,0-1.318-.9H30.544l-.042.224C34.149,190.84,36.563,192.973,37.566,195.535Z" transform="translate(-27.911 -180.362)"/><g transform="translate(5.594 9.279)"><path class="c" d="M188.415,190.892h-3.026l-1.89,11.09h3.021Z" transform="translate(-173.502 -190.702)"/><path class="c" d="M71.742,202.052,76.5,190.981H73.3l-2.96,7.564-.316-1.142a11.833,11.833,0,0,0-4.186-4.6l2.706,9.249Z" transform="translate(-65.836 -190.784)"/><path class="c" d="M249.986,196.313c.011-1.259-.8-2.219-2.539-3.013-1.059-.512-1.7-.854-1.7-1.374,0-.459.546-.953,1.73-.953a5.579,5.579,0,0,1,2.262.425l.273.125.41-2.4a7.836,7.836,0,0,0-2.71-.463c-2.987,0-5.09,1.5-5.109,3.659-.019,1.594,1.5,2.482,2.649,3.014,1.176.542,1.571.888,1.564,1.374-.008.743-.938,1.082-1.807,1.082a6.341,6.341,0,0,1-2.847-.581l-.387-.178-.425,2.485a9.538,9.538,0,0,0,3.366.589C247.9,200.1,249.963,198.618,249.986,196.313Z" transform="translate(-226.444 -188.659)"/><path class="c" d="M344.2,200.443l3.871,0c.091.386.368,1.662.368,1.662h2.8l-2.448-11.082h-2.334a1.5,1.5,0,0,0-1.583.918l-4.49,10.164h3.177S344.078,200.743,344.2,200.443Zm2.072-5.37c-.015.03.251-.641.4-1.059l.2.956s.577,2.649.7,3.2h-2.509C345.315,197.536,346.267,195.073,346.267,195.073Z" transform="translate(-317.059 -190.826)"/></g></svg>