<svg xmlns="http://www.w3.org/2000/svg" width="17.004" height="17.497" viewBox="0 0 17.004 17.497"><defs><style>.a{fill:#414141;stroke-width:0.5px;}.a,.b{stroke:#414141;}.b{fill:none;stroke-linecap:round;stroke-linejoin:round;stroke-width:2px;}</style></defs><g transform="translate(-361.5 -513.5)"><path class="a" d="M1.02-2.77A.471.471,0,0,1,.675-2.9.438.438,0,0,1,.54-3.228a.418.418,0,0,1,.135-.319.484.484,0,0,1,.344-.127H6.06a.471.471,0,0,1,.344.133.438.438,0,0,1,.135.325A.418.418,0,0,1,6.4-2.9a.484.484,0,0,1-.344.127ZM3.528-.252A.527.527,0,0,1,3.153-.4.476.476,0,0,1,3-.758V-5.734a.49.49,0,0,1,.154-.373.543.543,0,0,1,.387-.145.5.5,0,0,1,.375.145.512.512,0,0,1,.141.373V-.77A.5.5,0,0,1,3.909-.4.522.522,0,0,1,3.528-.252Z" transform="translate(365.96 524.252)"/><path class="b" d="M-17156.127-14724.875l3.629,3.623Zm-11.373-5.209a6.668,6.668,0,0,1,6.664-6.666,6.669,6.669,0,0,1,6.67,6.666,6.666,6.666,0,0,1-6.67,6.665A6.665,6.665,0,0,1-17167.5-14730.084Z" transform="translate(17530 15251.25)"/></g></svg>